<svg width="79" height="27" viewBox="0 0 79 27" fill="none" xmlns="http://www.w3.org/2000/svg">
<path d="M23.0282 15.7777C22.8646 14.6628 22.3429 12.5302 19.837 11.7989C19.1773 11.6045 18.4971 11.5125 17.8578 11.4869L17.7913 11.4358C18.6556 10.8834 19.5608 10.0345 20.2768 8.72525C21.6167 6.27044 21.4173 4.50604 20.5683 4.1327C20.5683 4.1327 20.4967 4.9612 19.3869 4.76686C18.2772 4.57253 16.0883 4.40887 14.6103 6.55683C14.2318 7.10405 13.9403 7.70241 13.7204 8.28031L13.6642 8.32634C13.4136 7.34442 12.9021 6.23975 11.9151 5.16577C10.0228 3.10475 8.28914 2.7263 7.66009 3.40649C7.66009 3.40649 8.42211 3.73891 7.88 4.72595C7.3379 5.71299 6.4736 7.7331 8.03854 9.8248C8.43745 10.3567 9.07672 11.0573 9.55746 11.4562L9.56257 11.4716C8.50905 11.4 7.22539 11.5534 5.8241 12.2387C3.30791 13.4661 2.45384 15.0208 2.92946 15.8186C2.92946 15.8186 3.46645 15.1845 4.25915 15.9823C5.05185 16.7801 6.74465 18.1814 9.19435 17.2813C9.72111 17.087 10.4013 16.7494 10.9127 16.4426L10.9281 16.4937L11.1019 16.4886C10.7746 17.4398 10.5956 18.6417 10.8258 20.0685C11.2707 22.8353 12.5032 24.1036 13.4084 23.8786C13.4084 23.8786 12.9584 23.1831 13.9557 22.6563C14.9529 22.1295 16.7889 20.9226 16.6355 18.3144C16.5997 17.6495 16.4616 17 16.2877 16.4068L16.2928 16.3965C17.0804 17.0154 18.1442 17.583 19.5608 17.8439C22.3123 18.3553 23.9283 17.6137 24.0153 16.688C23.9948 16.7034 23.1868 16.8926 23.0282 15.7777Z" fill="white"/>
<path d="M14.3328 11.0831C14.3328 11.0831 14.9669 6.60815 17.8564 6.21947C20.746 5.83079 21.3648 5.33472 21.3648 5.33472C21.3648 5.33472 20.434 9.21127 18.6082 10.8222C16.7825 12.4332 13.2179 14.0135 14.3328 11.0831Z" fill="#EEFFE7"/>
<path d="M15.4437 12.9549C15.4437 12.9549 19.8981 12.1775 21.1511 14.8062C22.4041 17.4349 23.074 17.8696 23.074 17.8696C23.074 17.8696 19.0952 18.1765 17.0035 16.9337C14.9118 15.7012 12.3138 12.7964 15.4437 12.9549Z" fill="#EEFFE7"/>
<path d="M14.0591 14.576C14.0591 14.576 16.2837 18.5139 14.2278 20.5749C12.1719 22.636 11.9878 23.4184 11.9878 23.4184C11.9878 23.4184 10.3666 19.7771 10.832 17.3888C11.2974 15.0005 13.159 11.574 14.0591 14.576Z" fill="#EEFFE7"/>
<path d="M12.0289 13.7526C12.0289 13.7526 8.93483 17.0512 6.35216 15.7011C3.76949 14.3509 2.97168 14.4072 2.97168 14.4072C2.97168 14.4072 5.96348 11.7734 8.38249 11.5023C10.8015 11.2415 14.6218 11.9984 12.0289 13.7526Z" fill="#EEFFE7"/>
<path d="M12.2098 11.5637C12.2098 11.5637 8.14406 9.58967 8.66059 6.72061C9.17712 3.85154 8.89073 3.10999 8.89073 3.10999C8.89073 3.10999 12.2968 5.18635 13.2685 7.41614C14.2402 9.64592 14.6595 13.5225 12.2098 11.5637Z" fill="#EEFFE7"/>
<path d="M13.6037 14.1669C14.3692 14.1669 14.9897 13.5464 14.9897 12.781C14.9897 12.0155 14.3692 11.395 13.6037 11.395C12.8383 11.395 12.2178 12.0155 12.2178 12.781C12.2178 13.5464 12.8383 14.1669 13.6037 14.1669Z" fill="#5F4942"/>
<path d="M13.6029 14.4995C12.6568 14.4995 11.8896 13.7324 11.8896 12.7863C11.8896 11.8401 12.6568 11.073 13.6029 11.073C14.549 11.073 15.3162 11.8401 15.3162 12.7863C15.3162 13.7324 14.549 14.4995 13.6029 14.4995ZM13.6029 11.7123C13.0148 11.7123 12.534 12.193 12.534 12.7811C12.534 13.3693 13.0148 13.85 13.6029 13.85C14.191 13.85 14.6718 13.3693 14.6718 12.7811C14.6718 12.193 14.191 11.7123 13.6029 11.7123Z" fill="#26650B"/>
<path d="M21.2328 18.3452C20.6958 18.3452 20.1025 18.2889 19.4837 18.1713C15.3617 17.4093 14.0882 14.2129 14.0371 14.0799C13.9706 13.9163 14.0576 13.7271 14.2212 13.6657C14.39 13.5992 14.5741 13.6861 14.6355 13.8498C14.6815 13.9725 15.8475 16.8467 19.6013 17.5422C21.243 17.844 22.6392 17.7161 23.3347 17.1945C23.4012 17.1433 23.4779 17.0768 23.5444 16.995C23.4523 16.9694 23.3603 16.9234 23.2682 16.8621C22.9716 16.6575 22.7824 16.3148 22.7159 15.829C22.4295 13.8549 21.4322 12.6019 19.7548 12.111C19.1769 11.9422 18.5376 11.8399 17.8523 11.8092C17.6733 11.799 17.5352 11.6507 17.5454 11.4717C17.5557 11.2927 17.7091 11.1546 17.883 11.1648C18.6194 11.1955 19.315 11.308 19.9389 11.4921C21.8823 12.0598 23.033 13.4867 23.3603 15.7369C23.4012 16.0233 23.4984 16.2279 23.6313 16.3251C23.7745 16.4273 23.9331 16.3967 23.9382 16.3967C24.0354 16.3762 24.1428 16.4069 24.2195 16.4734C24.2962 16.5399 24.3371 16.6421 24.3269 16.7444C24.2911 17.1126 24.0814 17.4502 23.7285 17.7161C23.1557 18.1253 22.2914 18.3452 21.2328 18.3452Z" fill="#26650B"/>
<path d="M17.8633 13.3793C17.8429 13.3793 17.8224 13.3793 17.7968 13.3742C16.8661 13.185 15.0045 13.1083 14.9891 13.1083C14.8101 13.1032 14.6721 12.9497 14.6823 12.7759C14.6874 12.5969 14.8357 12.4639 15.0147 12.469C15.0914 12.4741 16.9428 12.5457 17.9298 12.7503C18.1037 12.7861 18.2162 12.9549 18.1804 13.1287C18.1446 13.2771 18.0116 13.3793 17.8633 13.3793ZM16.4313 15.0568C16.3597 15.0568 16.2933 15.0363 16.2319 14.9903C15.7 14.5761 14.6209 13.768 14.6056 13.7578C14.4624 13.6504 14.4317 13.4509 14.5391 13.3077C14.6465 13.1645 14.8459 13.1339 14.9891 13.2413C14.9994 13.2515 16.0836 14.0595 16.6257 14.4789C16.7638 14.5863 16.7893 14.7909 16.6819 14.9289C16.6206 15.0108 16.5285 15.0568 16.4313 15.0568ZM13.1889 24.2368C12.9179 24.2368 12.6315 24.1447 12.3604 23.9657C11.4757 23.3776 10.7955 21.9814 10.4989 20.1301C9.83404 15.9927 12.4167 13.722 12.5292 13.6248C12.6622 13.5072 12.8668 13.5225 12.9844 13.6606C13.102 13.7936 13.0867 13.9982 12.9486 14.1158C12.8514 14.2027 10.5296 16.2586 11.133 20.0278C11.399 21.6746 11.9871 22.948 12.7133 23.4287C12.7849 23.4748 12.877 23.5259 12.9742 23.5566C12.969 23.4645 12.9793 23.3571 13.0048 23.2497C13.0969 22.902 13.3628 22.6105 13.7924 22.3803C15.5568 21.4495 16.4007 20.0892 16.3035 18.3452C16.2728 17.7622 16.1552 17.1485 15.966 16.5092C15.9148 16.3405 16.012 16.1615 16.1807 16.1103C16.3495 16.0592 16.5285 16.1563 16.5797 16.3251C16.7842 17.0104 16.907 17.6753 16.9428 18.3094C17.0604 20.3295 16.0989 21.8945 14.089 22.9531C13.8282 23.0912 13.6697 23.2497 13.6288 23.4134C13.5879 23.577 13.6646 23.7151 13.6646 23.7151C13.7208 23.8021 13.7311 23.9095 13.6953 24.0066C13.6595 24.1038 13.5725 24.1754 13.4753 24.201C13.3833 24.2265 13.2861 24.2368 13.1889 24.2368Z" fill="#26650B"/>
<path d="M14.7723 17.2048C14.6138 17.2048 14.4757 17.0872 14.4552 16.9287C14.3223 15.9876 13.7699 14.2079 13.7648 14.1926C13.7137 14.0238 13.8057 13.8397 13.9745 13.7885C14.1433 13.7374 14.3274 13.8295 14.3785 13.9982C14.4041 14.0749 14.9513 15.8444 15.0894 16.8366C15.115 17.0105 14.9922 17.1741 14.8132 17.1997C14.803 17.2048 14.7877 17.2048 14.7723 17.2048ZM12.7164 16.4172C12.6806 16.4172 12.6499 16.4121 12.6141 16.4019C12.4454 16.3456 12.3533 16.1615 12.4096 15.9928C12.6244 15.3484 13.0233 14.0647 13.0284 14.0494C13.0795 13.8806 13.2585 13.7834 13.4324 13.8397C13.6012 13.8908 13.6983 14.0749 13.6421 14.2437C13.637 14.259 13.2381 15.5529 13.0233 16.1973C12.9772 16.3303 12.8494 16.4172 12.7164 16.4172ZM7.61245 17.9055C6.33902 17.9055 5.13718 17.3378 4.02229 16.2127C3.81772 16.003 3.61827 15.9007 3.44438 15.9058C3.27562 15.9109 3.16822 16.0286 3.1631 16.0286C3.09662 16.1104 2.99433 16.1513 2.89205 16.1411C2.78977 16.1308 2.69771 16.0746 2.64146 15.9876C2.45223 15.6706 2.41643 15.2768 2.54429 14.8523C2.84602 13.8346 3.98649 12.7759 5.66906 11.9525C9.4331 10.1114 12.3584 11.9219 12.4812 11.9986C12.6295 12.0957 12.6755 12.2952 12.5783 12.4435C12.4812 12.5918 12.2817 12.6378 12.1334 12.5407C12.0209 12.4691 9.37685 10.853 5.94522 12.5304C4.44677 13.2618 3.40347 14.1977 3.15287 15.0313C3.1273 15.1131 3.10685 15.2154 3.10685 15.3177C3.19379 15.287 3.29607 15.2665 3.40858 15.2614C3.77169 15.2461 4.12457 15.4149 4.46722 15.7575C5.87363 17.1741 7.41811 17.5884 9.05977 16.9798C9.6479 16.765 10.4713 16.3456 10.9776 16.0132C11.1259 15.916 11.3254 15.957 11.4225 16.1053C11.5197 16.2536 11.4788 16.453 11.3305 16.5502C10.7781 16.9133 9.91895 17.3531 9.27968 17.5884C8.72223 17.7981 8.15967 17.9055 7.61245 17.9055Z" fill="#26650B"/>
<path d="M10.0244 15.4147C9.90167 15.4147 9.78404 15.3431 9.7329 15.2306C9.65619 15.067 9.72779 14.8777 9.89144 14.801C10.7557 14.4021 12.2951 13.3537 12.3105 13.3435C12.4588 13.2412 12.6582 13.2821 12.7554 13.4304C12.8577 13.5787 12.8168 13.7782 12.6684 13.8805C12.602 13.9265 11.0728 14.9647 10.1625 15.3892C10.1165 15.4045 10.0704 15.4147 10.0244 15.4147ZM12.2184 13.2412C12.2031 13.2412 10.8478 13.2361 10.1676 13.2156C9.98861 13.2105 9.85053 13.0622 9.85564 12.8832C9.86076 12.7042 10.0142 12.5661 10.1881 12.5712C10.8631 12.5866 12.2133 12.5968 12.2286 12.5968C12.4076 12.5968 12.5508 12.7451 12.5508 12.919C12.5406 13.098 12.3974 13.2412 12.2184 13.2412ZM9.54879 11.7785C9.47719 11.7785 9.40048 11.753 9.34422 11.7018C8.8686 11.3029 8.20887 10.592 7.77417 10.0141C6.5621 8.39295 6.50073 6.55695 7.59517 4.56753C7.73325 4.31182 7.77928 4.09702 7.72814 3.93337C7.677 3.76972 7.52869 3.693 7.52357 3.693C7.43152 3.64698 7.36503 3.56003 7.34458 3.46286C7.32412 3.36058 7.34969 3.2583 7.42129 3.18158C7.67188 2.91053 8.0401 2.76733 8.48504 2.76733C9.54879 2.76733 10.8836 3.56003 12.1519 4.94087C14.9852 8.02472 14.0851 11.3489 14.0442 11.487C13.9981 11.6558 13.8191 11.7581 13.6453 11.7069C13.4765 11.6609 13.3742 11.4819 13.4253 11.308C13.4611 11.1802 14.259 8.18326 11.6763 5.37557C10.5461 4.14305 9.35445 3.41172 8.48504 3.41172C8.3981 3.41172 8.29581 3.42195 8.19865 3.44752C8.2549 3.52423 8.30604 3.61629 8.34184 3.72369C8.45947 4.06634 8.3981 4.45502 8.16285 4.8795C7.20138 6.62855 7.24741 8.22929 8.29581 9.63058C8.69472 10.1625 9.32377 10.8426 9.76359 11.2058C9.90167 11.3183 9.91701 11.5228 9.8045 11.6609C9.7329 11.7376 9.64085 11.7785 9.54879 11.7785Z" fill="#26650B"/>
<path d="M12.4986 12.2693C12.427 12.2693 12.3554 12.2438 12.294 12.1977C12.2327 12.1466 10.8007 10.9754 10.1358 10.2237C10.0182 10.0907 10.0285 9.88612 10.1665 9.7685C10.2995 9.65087 10.5041 9.6611 10.6217 9.79918C11.2507 10.5152 12.6929 11.6914 12.7032 11.7017C12.8413 11.8142 12.8617 12.0187 12.7492 12.1568C12.6878 12.2284 12.5958 12.2693 12.4986 12.2693ZM13.0867 11.8193C12.9487 11.8193 12.8208 11.7272 12.7799 11.5891C12.7748 11.5738 12.3963 10.2748 12.2173 9.61507C12.1713 9.44119 12.2736 9.26731 12.4424 9.22128C12.6111 9.17525 12.7901 9.27754 12.8361 9.4463C13.01 10.1009 13.3885 11.3948 13.3936 11.405C13.4447 11.5738 13.3476 11.7528 13.1737 11.8039C13.1481 11.8142 13.1174 11.8193 13.0867 11.8193ZM14.9636 12.7808C14.7949 12.7808 14.6517 12.6478 14.6415 12.4739C14.6312 12.2949 14.7693 12.1466 14.9483 12.1364C14.9585 12.1364 16.2166 12.0545 17.5872 11.1902C18.5845 10.5612 19.3977 9.68156 20.0011 8.57178C20.8041 7.104 21.1109 5.73851 20.8347 4.91513C20.8092 4.8333 20.7683 4.74125 20.7069 4.65431C20.6506 4.73102 20.5841 4.80773 20.4921 4.87422C20.2057 5.09413 19.817 5.16572 19.3414 5.07878C17.3724 4.73613 15.874 5.29358 14.8869 6.73578C14.5596 7.21652 14.2681 7.77396 14.0278 8.39278C13.9613 8.55643 13.7772 8.64338 13.6135 8.57689C13.4498 8.51552 13.3629 8.3263 13.4294 8.16264C13.6851 7.4978 13.9971 6.89432 14.3551 6.37267C15.5006 4.70545 17.219 4.05594 19.4539 4.44462C19.7403 4.49577 19.9653 4.46508 20.1034 4.3628C20.2364 4.26051 20.262 4.10197 20.262 4.10197C20.2722 3.99969 20.3284 3.90763 20.4205 3.85138C20.5074 3.80024 20.6199 3.79001 20.712 3.83603C21.0495 3.98435 21.3052 4.28608 21.4484 4.70545C21.7911 5.71294 21.4689 7.23186 20.5739 8.87863C19.9142 10.0856 19.0294 11.047 17.9401 11.7323C16.4161 12.6938 15.0455 12.7756 14.9892 12.7756C14.9739 12.7808 14.9688 12.7808 14.9636 12.7808Z" fill="#26650B"/>
<path d="M14.0398 11.7838C14.004 11.7838 13.9631 11.7787 13.9273 11.7633C13.7585 11.7019 13.6767 11.5178 13.7381 11.3491C13.7637 11.2775 14.4132 9.53864 14.9144 8.66923C15.0013 8.5158 15.2008 8.45954 15.3542 8.5516C15.5076 8.63854 15.5639 8.83799 15.4718 8.99142C15.0013 9.81992 14.3467 11.5587 14.3416 11.5792C14.2904 11.7019 14.1677 11.7838 14.0398 11.7838ZM14.6535 12.1929C14.5512 12.1929 14.4541 12.1469 14.3876 12.0548C14.2853 11.9116 14.3211 11.7071 14.4643 11.6048C14.4745 11.5945 15.5843 10.8172 16.152 10.4387C16.3003 10.3416 16.4998 10.3774 16.5969 10.5257C16.6941 10.674 16.6583 10.8734 16.51 10.9706C15.9474 11.3491 14.8428 12.1213 14.8325 12.1315C14.7814 12.1724 14.72 12.1929 14.6535 12.1929Z" fill="#26650B"/>
<path d="M49.3759 15.7776C49.2122 14.6627 48.6906 12.5301 46.1846 11.7988C45.5249 11.6044 44.8447 11.5124 44.2054 11.4868L44.139 11.4356C45.0033 10.8833 45.9085 10.0344 46.6245 8.72513C47.9644 6.27031 47.7649 4.50592 46.916 4.13258C46.916 4.13258 46.8444 4.96108 45.7346 4.76674C44.6248 4.5724 42.4359 4.40875 40.9579 6.55671C40.5795 7.10393 40.288 7.70229 40.0681 8.28019L40.0118 8.32622C39.7612 7.3443 39.2498 6.23963 38.2628 5.16565C36.3705 3.10463 34.6368 2.72618 34.0077 3.40637C34.0077 3.40637 34.7698 3.73879 34.2277 4.72583C33.6856 5.71287 32.8213 7.73297 34.3862 9.82468C34.7851 10.3566 35.4244 11.0572 35.9051 11.4561L35.9102 11.4714C34.8567 11.3999 33.573 11.5533 32.1718 12.2386C29.6556 13.466 28.8015 15.0207 29.2771 15.8185C29.2771 15.8185 29.8141 15.1844 30.6068 15.9822C31.3995 16.78 33.0923 18.1813 35.542 17.2812C36.0688 17.0868 36.749 16.7493 37.2604 16.4424L37.2757 16.4936L37.4496 16.4885C37.1223 17.4397 36.9433 18.6415 37.1734 20.0684C37.6184 22.8352 38.8509 24.1035 39.7561 23.8785C39.7561 23.8785 39.3061 23.183 40.3033 22.6562C41.3006 22.1294 43.1366 20.9225 42.9832 18.3142C42.9474 17.6494 42.8093 16.9999 42.6354 16.4066L42.6405 16.3964C43.4281 17.0152 44.4918 17.5829 45.9085 17.8437C48.6599 18.3552 50.276 17.6136 50.3629 16.6879C50.3425 16.7033 49.5344 16.8925 49.3759 15.7776Z" fill="white"/>
<path d="M40.6726 11.0829C40.6726 11.0829 41.3068 6.60803 44.1963 6.21935C47.0858 5.83067 47.7046 5.33459 47.7046 5.33459C47.7046 5.33459 46.7738 9.21115 44.9481 10.8221C43.1223 12.4331 39.5577 14.0134 40.6726 11.0829Z" fill="#EEFFE7"/>
<path d="M41.7904 12.9548C41.7904 12.9548 46.2448 12.1774 47.4978 14.8061C48.7508 17.4348 49.4207 17.8695 49.4207 17.8695C49.4207 17.8695 45.4419 18.1764 43.3502 16.9336C41.2585 15.7011 38.6605 12.7962 41.7904 12.9548Z" fill="#EEFFE7"/>
<path d="M40.3979 14.5759C40.3979 14.5759 42.6226 18.5138 40.5667 20.5748C38.5108 22.6358 38.3267 23.4183 38.3267 23.4183C38.3267 23.4183 36.7055 19.777 37.1709 17.3887C37.6363 15.0003 39.4978 11.5738 40.3979 14.5759Z" fill="#EEFFE7"/>
<path d="M38.3688 13.7524C38.3688 13.7524 35.2747 17.0511 32.692 15.701C30.1093 14.3508 29.3115 14.4071 29.3115 14.4071C29.3115 14.4071 32.3033 11.7733 34.7223 11.5022C37.1414 11.2414 40.9617 11.9983 38.3688 13.7524Z" fill="#EEFFE7"/>
<path d="M38.5497 11.5636C38.5497 11.5636 34.4839 9.58955 35.0004 6.72048C35.517 3.85142 35.2306 3.10986 35.2306 3.10986C35.2306 3.10986 38.6366 5.18623 39.6083 7.41601C40.58 9.6458 40.9994 13.5224 38.5497 11.5636Z" fill="#EEFFE7"/>
<path d="M39.9426 14.1668C40.708 14.1668 41.3285 13.5463 41.3285 12.7808C41.3285 12.0154 40.708 11.3949 39.9426 11.3949C39.1772 11.3949 38.5566 12.0154 38.5566 12.7808C38.5566 13.5463 39.1772 14.1668 39.9426 14.1668Z" fill="#5F4942"/>
<path d="M39.9427 14.4994C38.9966 14.4994 38.2295 13.7323 38.2295 12.7861C38.2295 11.84 38.9966 11.0729 39.9427 11.0729C40.8889 11.0729 41.656 11.84 41.656 12.7861C41.656 13.7323 40.8889 14.4994 39.9427 14.4994ZM39.9427 11.7122C39.3546 11.7122 38.8739 12.1929 38.8739 12.781C38.8739 13.3691 39.3546 13.8499 39.9427 13.8499C40.5309 13.8499 41.0116 13.3691 41.0116 12.781C41.0116 12.1929 40.5309 11.7122 39.9427 11.7122Z" fill="#26650B"/>
<path d="M47.5726 18.345C47.0356 18.345 46.4424 18.2888 45.8236 18.1712C41.7015 17.4091 40.4281 14.2128 40.377 14.0798C40.3105 13.9162 40.3974 13.7269 40.5611 13.6656C40.7298 13.5991 40.9139 13.686 40.9753 13.8497C41.0213 13.9724 42.1874 16.8466 45.9412 17.5421C47.5828 17.8439 48.979 17.716 49.6746 17.1944C49.741 17.1432 49.8177 17.0767 49.8842 16.9949C49.7922 16.9693 49.7001 16.9233 49.6081 16.8619C49.3114 16.6574 49.1222 16.3147 49.0557 15.8289C48.7693 13.8548 47.7721 12.6018 46.0946 12.1108C45.5167 11.9421 44.8774 11.8398 44.1921 11.8091C44.0131 11.7989 43.8751 11.6506 43.8853 11.4716C43.8955 11.2926 44.0489 11.1545 44.2228 11.1647C44.9593 11.1954 45.6548 11.3079 46.2787 11.492C48.2221 12.0597 49.3728 13.4866 49.7001 15.7368C49.741 16.0232 49.8382 16.2278 49.9712 16.3249C50.1144 16.4272 50.2729 16.3965 50.278 16.3965C50.3752 16.3761 50.4826 16.4068 50.5593 16.4732C50.636 16.5397 50.6769 16.642 50.6667 16.7443C50.6309 17.1125 50.4212 17.4501 50.0683 17.716C49.4956 18.1251 48.6313 18.345 47.5726 18.345Z" fill="#26650B"/>
<path d="M44.2032 13.3792C44.1827 13.3792 44.1622 13.3792 44.1367 13.3741C43.2059 13.1849 41.3443 13.1082 41.329 13.1082C41.15 13.1031 41.0119 12.9496 41.0221 12.7757C41.0273 12.5967 41.1756 12.4638 41.3546 12.4689C41.4313 12.474 43.2826 12.5456 44.2696 12.7502C44.4435 12.786 44.556 12.9547 44.5202 13.1286C44.4844 13.2769 44.3515 13.3792 44.2032 13.3792ZM42.7712 15.0567C42.6996 15.0567 42.6331 15.0362 42.5717 14.9902C42.0399 14.5759 40.9608 13.7679 40.9454 13.7577C40.8022 13.6503 40.7715 13.4508 40.8789 13.3076C40.9863 13.1644 41.1858 13.1337 41.329 13.2411C41.3392 13.2514 42.4234 14.0594 42.9655 14.4788C43.1036 14.5862 43.1292 14.7907 43.0218 14.9288C42.9604 15.0106 42.8684 15.0567 42.7712 15.0567ZM39.5288 24.2366C39.2577 24.2366 38.9713 24.1446 38.7003 23.9656C37.8155 23.3775 37.1353 21.9813 36.8387 20.13C36.1739 15.9926 38.7565 13.7219 38.8691 13.6247C39.002 13.5071 39.2066 13.5224 39.3242 13.6605C39.4419 13.7935 39.4265 13.998 39.2884 14.1157C39.1913 14.2026 36.8694 16.2585 37.4729 20.0277C37.7388 21.6744 38.327 22.9479 39.0532 23.4286C39.1248 23.4746 39.2168 23.5258 39.314 23.5565C39.3089 23.4644 39.3191 23.357 39.3447 23.2496C39.4367 22.9018 39.7027 22.6103 40.1323 22.3802C41.8967 21.4494 42.7405 20.089 42.6433 18.3451C42.6127 17.7621 42.495 17.1484 42.3058 16.5091C42.2547 16.3403 42.3518 16.1613 42.5206 16.1102C42.6894 16.0591 42.8684 16.1562 42.9195 16.325C43.1241 17.0103 43.2468 17.6751 43.2826 18.3093C43.4002 20.3294 42.4388 21.8943 40.4289 22.953C40.1681 23.0911 40.0095 23.2496 39.9686 23.4133C39.9277 23.5769 40.0044 23.715 40.0044 23.715C40.0607 23.8019 40.0709 23.9093 40.0351 24.0065C39.9993 24.1037 39.9124 24.1753 39.8152 24.2008C39.7231 24.2264 39.626 24.2366 39.5288 24.2366Z" fill="#26650B"/>
<path d="M41.1122 17.2047C40.9536 17.2047 40.8155 17.0871 40.7951 16.9285C40.6621 15.9875 40.1098 14.2078 40.1047 14.1924C40.0535 14.0237 40.1456 13.8396 40.3144 13.7884C40.4831 13.7373 40.6672 13.8293 40.7184 13.9981C40.7439 14.0748 41.2912 15.8443 41.4292 16.8365C41.4548 17.0104 41.3321 17.174 41.1531 17.1996C41.1428 17.2047 41.1275 17.2047 41.1122 17.2047ZM39.0563 16.4171C39.0205 16.4171 38.9898 16.412 38.954 16.4018C38.7852 16.3455 38.6932 16.1614 38.7494 15.9926C38.9642 15.3482 39.3631 14.0646 39.3682 14.0492C39.4194 13.8805 39.5984 13.7833 39.7722 13.8396C39.941 13.8907 40.0382 14.0748 39.9819 14.2436C39.9768 14.2589 39.5779 15.5528 39.3631 16.1972C39.3171 16.3302 39.1892 16.4171 39.0563 16.4171ZM33.9523 17.9053C32.6789 17.9053 31.477 17.3377 30.3621 16.2125C30.1576 16.0029 29.9581 15.9006 29.7842 15.9057C29.6155 15.9108 29.5081 16.0284 29.5029 16.0284C29.4365 16.1103 29.3342 16.1512 29.2319 16.1409C29.1296 16.1307 29.0376 16.0745 28.9813 15.9875C28.7921 15.6704 28.7563 15.2766 28.8841 14.8522C29.1859 13.8344 30.3263 12.7758 32.0089 11.9524C35.7729 10.1113 38.6983 11.9217 38.821 11.9985C38.9693 12.0956 39.0153 12.2951 38.9182 12.4434C38.821 12.5917 38.6216 12.6377 38.4732 12.5406C38.3607 12.469 35.7167 10.8529 32.2851 12.5303C30.7866 13.2617 29.7433 14.1976 29.4927 15.0312C29.4671 15.113 29.4467 15.2153 29.4467 15.3176C29.5336 15.2869 29.6359 15.2664 29.7484 15.2613C30.1115 15.246 30.4644 15.4147 30.8071 15.7574C32.2135 17.174 33.758 17.5883 35.3996 16.9797C35.9877 16.7649 36.8111 16.3455 37.3174 16.0131C37.4657 15.9159 37.6652 15.9568 37.7624 16.1051C37.8595 16.2535 37.8186 16.4529 37.6703 16.5501C37.118 16.9132 36.2588 17.353 35.6195 17.5883C35.0621 17.7979 34.4995 17.9053 33.9523 17.9053Z" fill="#26650B"/>
<path d="M36.3721 15.4146C36.2493 15.4146 36.1317 15.343 36.0806 15.2305C36.0038 15.0668 36.0754 14.8776 36.2391 14.8009C37.1034 14.402 38.6428 13.3536 38.6581 13.3434C38.8064 13.2411 39.0059 13.282 39.103 13.4303C39.2053 13.5786 39.1644 13.7781 39.0161 13.8804C38.9496 13.9264 37.4205 14.9646 36.5102 15.389C36.4641 15.4044 36.4181 15.4146 36.3721 15.4146ZM38.5661 13.2411C38.5507 13.2411 37.1955 13.236 36.5153 13.2155C36.3363 13.2104 36.1982 13.0621 36.2033 12.8831C36.2084 12.7041 36.3618 12.566 36.5357 12.5711C37.2108 12.5865 38.5609 12.5967 38.5763 12.5967C38.7553 12.5967 38.8985 12.745 38.8985 12.9189C38.8883 13.0979 38.7451 13.2411 38.5661 13.2411ZM35.8964 11.7784C35.8248 11.7784 35.7481 11.7528 35.6919 11.7017C35.2163 11.3028 34.5565 10.5919 34.1218 10.014C32.9098 8.39282 32.8484 6.55683 33.9428 4.56741C34.0809 4.3117 34.1269 4.0969 34.0758 3.93325C34.0247 3.76959 33.8763 3.69288 33.8712 3.69288C33.7792 3.64685 33.7127 3.55991 33.6922 3.46274C33.6718 3.36046 33.6973 3.25817 33.7689 3.18146C34.0195 2.91041 34.3878 2.76721 34.8327 2.76721C35.8964 2.76721 37.2313 3.55991 38.4996 4.94074C41.3328 8.0246 40.4327 11.3488 40.3918 11.4869C40.3458 11.6557 40.1668 11.758 39.9929 11.7068C39.8241 11.6608 39.7219 11.4818 39.773 11.3079C39.8088 11.1801 40.6066 8.18314 38.024 5.37545C36.8937 4.14293 35.7021 3.4116 34.8327 3.4116C34.7458 3.4116 34.6435 3.42183 34.5463 3.4474C34.6026 3.52411 34.6537 3.61617 34.6895 3.72357C34.8071 4.06622 34.7458 4.4549 34.5105 4.87937C33.549 6.62843 33.5951 8.22917 34.6435 9.63046C35.0424 10.1623 35.6714 10.8425 36.1112 11.2056C36.2493 11.3181 36.2647 11.5227 36.1522 11.6608C36.0806 11.7375 35.9885 11.7784 35.8964 11.7784Z" fill="#26650B"/>
<path d="M38.8306 12.2692C38.759 12.2692 38.6874 12.2436 38.6261 12.1976C38.5647 12.1465 37.1327 10.9753 36.4679 10.2235C36.3503 10.0906 36.3605 9.886 36.4986 9.76838C36.6315 9.65075 36.8361 9.66098 36.9537 9.79906C37.5828 10.515 39.025 11.6913 39.0352 11.7015C39.1733 11.8141 39.1937 12.0186 39.0812 12.1567C39.0199 12.2283 38.9278 12.2692 38.8306 12.2692ZM39.4188 11.8192C39.2807 11.8192 39.1528 11.7271 39.1119 11.589C39.1068 11.5737 38.7284 10.2747 38.5494 9.61495C38.5033 9.44107 38.6056 9.26719 38.7744 9.22116C38.9432 9.17513 39.1221 9.27741 39.1682 9.44618C39.3421 10.1008 39.7205 11.3947 39.7256 11.4049C39.7768 11.5737 39.6796 11.7527 39.5057 11.8038C39.4801 11.8141 39.4495 11.8192 39.4188 11.8192ZM41.2957 12.7806C41.1269 12.7806 40.9837 12.6477 40.9735 12.4738C40.9633 12.2948 41.1013 12.1465 41.2803 12.1362C41.2906 12.1362 42.5487 12.0544 43.9193 11.1901C44.9165 10.5611 45.7297 9.68143 46.3332 8.57165C47.1361 7.10388 47.4429 5.73839 47.1668 4.91501C47.1412 4.83318 47.1003 4.74112 47.0389 4.65418C46.9827 4.7309 46.9162 4.80761 46.8241 4.87409C46.5377 5.094 46.149 5.1656 45.6734 5.07866C43.7045 4.73601 42.206 5.29346 41.219 6.73566C40.8917 7.21639 40.6001 7.77384 40.3598 8.39266C40.2933 8.55631 40.1092 8.64325 39.9455 8.57677C39.7819 8.5154 39.6949 8.32617 39.7614 8.16252C40.0171 7.49767 40.3291 6.8942 40.6871 6.37255C41.8327 4.70533 43.551 4.05582 45.7859 4.4445C46.0723 4.49564 46.2974 4.46496 46.4354 4.36267C46.5684 4.26039 46.594 4.10185 46.594 4.10185C46.6042 3.99957 46.6605 3.90751 46.7525 3.85125C46.8395 3.80011 46.952 3.78988 47.044 3.83591C47.3816 3.98422 47.6373 4.28596 47.7805 4.70533C48.1231 5.71282 47.8009 7.23174 46.9059 8.87851C46.2462 10.0855 45.3615 11.0469 44.2721 11.7322C42.7481 12.6937 41.3775 12.7755 41.3212 12.7755C41.3059 12.7806 41.3008 12.7806 41.2957 12.7806Z" fill="#26650B"/>
<path d="M40.3797 11.7836C40.3439 11.7836 40.303 11.7785 40.2672 11.7632C40.0984 11.7018 40.0166 11.5177 40.0779 11.3489C40.1035 11.2773 40.753 9.53852 41.2542 8.6691C41.3411 8.51568 41.5406 8.45942 41.694 8.55148C41.8474 8.63842 41.9037 8.83787 41.8116 8.9913C41.3411 9.8198 40.6865 11.5586 40.6814 11.5791C40.6303 11.7018 40.5075 11.7836 40.3797 11.7836ZM40.9934 12.1928C40.8911 12.1928 40.7939 12.1468 40.7274 12.0547C40.6252 11.9115 40.661 11.7069 40.8041 11.6047C40.8144 11.5944 41.9242 10.8171 42.4918 10.4386C42.6401 10.3414 42.8396 10.3772 42.9368 10.5256C43.0339 10.6739 42.9981 10.8733 42.8498 10.9705C42.2873 11.3489 41.1826 12.1212 41.1724 12.1314C41.1212 12.1723 41.0599 12.1928 40.9934 12.1928Z" fill="#26650B"/>
<path d="M75.7079 15.7777C75.5443 14.6628 75.0226 12.5302 72.5167 11.7989C71.8569 11.6045 71.1768 11.5125 70.5375 11.4869L70.471 11.4358C71.3353 10.8834 72.2405 10.0345 72.9565 8.72525C74.2964 6.27044 74.097 4.50604 73.248 4.1327C73.248 4.1327 73.1764 4.9612 72.0666 4.76686C70.9568 4.57253 68.768 4.40887 67.29 6.55683C66.9115 7.10405 66.62 7.70241 66.4001 8.28031L66.3438 8.32634C66.0932 7.34442 65.5818 6.23975 64.5948 5.16577C62.7025 3.10475 60.9688 2.7263 60.3398 3.40649C60.3398 3.40649 61.1018 3.73891 60.5597 4.72595C60.0176 5.71299 59.1533 7.7331 60.7182 9.8248C61.1171 10.3567 61.7564 11.0573 62.2371 11.4562L62.2423 11.4716C61.1887 11.4 59.9051 11.5534 58.5038 12.2387C55.9876 13.4661 55.1335 15.0208 55.6092 15.8186C55.6092 15.8186 56.1461 15.1845 56.9388 15.9823C57.7315 16.7801 59.4243 18.1814 61.874 17.2813C62.4008 17.087 63.081 16.7494 63.5924 16.4426L63.6077 16.4937L63.7816 16.4886C63.4543 17.4398 63.2753 18.6417 63.5055 20.0685C63.9504 22.8353 65.1829 24.1036 66.0881 23.8786C66.0881 23.8786 65.6381 23.1831 66.6354 22.6563C67.6326 22.1295 69.4686 20.9226 69.3152 18.3144C69.2794 17.6495 69.1413 17 68.9674 16.4068L68.9725 16.3965C69.7601 17.0154 70.8239 17.583 72.2405 17.8439C74.9919 18.3553 76.608 17.6137 76.695 16.688C76.6745 16.7034 75.8665 16.8926 75.7079 15.7777Z" fill="white"/>
<path d="M67.0124 11.0831C67.0124 11.0831 67.6466 6.60815 70.5361 6.21947C73.4256 5.83079 74.0445 5.33472 74.0445 5.33472C74.0445 5.33472 73.1137 9.21127 71.2879 10.8222C69.4621 12.4332 65.8976 14.0135 67.0124 11.0831Z" fill="#EEFFE7"/>
<path d="M68.1224 12.9549C68.1224 12.9549 72.5768 12.1775 73.8298 14.8062C75.0828 17.4349 75.7528 17.8696 75.7528 17.8696C75.7528 17.8696 71.7739 18.1765 69.6822 16.9337C67.5905 15.7012 64.9925 12.7964 68.1224 12.9549Z" fill="#EEFFE7"/>
<path d="M66.7378 14.576C66.7378 14.576 68.9624 18.5139 66.9065 20.5749C64.8506 22.636 64.6665 23.4184 64.6665 23.4184C64.6665 23.4184 63.0453 19.7771 63.5107 17.3888C63.9761 15.0005 65.8377 11.574 66.7378 14.576Z" fill="#EEFFE7"/>
<path d="M64.6998 13.7526C64.6998 13.7526 61.6057 17.0512 59.0231 15.7011C56.4404 14.3509 55.6426 14.4072 55.6426 14.4072C55.6426 14.4072 58.6344 11.7734 61.0534 11.5023C63.4724 11.2415 67.2927 11.9984 64.6998 13.7526Z" fill="#EEFFE7"/>
<path d="M64.8886 11.5637C64.8886 11.5637 60.8228 9.58967 61.3393 6.72061C61.8558 3.85154 61.5694 3.10999 61.5694 3.10999C61.5694 3.10999 64.9755 5.18635 65.9472 7.41614C66.9189 9.64592 67.3382 13.5225 64.8886 11.5637Z" fill="#EEFFE7"/>
<path d="M66.2824 14.1669C67.0479 14.1669 67.6684 13.5464 67.6684 12.781C67.6684 12.0155 67.0479 11.395 66.2824 11.395C65.517 11.395 64.8965 12.0155 64.8965 12.781C64.8965 13.5464 65.517 14.1669 66.2824 14.1669Z" fill="#5F4942"/>
<path d="M66.2748 14.4995C65.3287 14.4995 64.5615 13.7324 64.5615 12.7863C64.5615 11.8401 65.3287 11.073 66.2748 11.073C67.2209 11.073 67.988 11.8401 67.988 12.7863C67.988 13.7324 67.2209 14.4995 66.2748 14.4995ZM66.2748 11.7123C65.6866 11.7123 65.2059 12.193 65.2059 12.7811C65.2059 13.3693 65.6866 13.85 66.2748 13.85C66.8629 13.85 67.3436 13.3693 67.3436 12.7811C67.3436 12.193 66.8629 11.7123 66.2748 11.7123Z" fill="#26650B"/>
<path d="M73.9125 18.3452C73.3755 18.3452 72.7822 18.2889 72.1634 18.1713C68.0414 17.4093 66.7679 14.2129 66.7168 14.0799C66.6503 13.9163 66.7373 13.7271 66.9009 13.6657C67.0697 13.5992 67.2538 13.6861 67.3152 13.8498C67.3612 13.9725 68.5272 16.8467 72.281 17.5422C73.9227 17.844 75.3189 17.7161 76.0144 17.1945C76.0809 17.1433 76.1576 17.0768 76.2241 16.995C76.132 16.9694 76.04 16.9234 75.9479 16.8621C75.6513 16.6575 75.4621 16.3148 75.3956 15.829C75.1092 13.8549 74.1119 12.6019 72.4345 12.111C71.8566 11.9422 71.2173 11.8399 70.532 11.8092C70.353 11.799 70.2149 11.6507 70.2251 11.4717C70.2354 11.2927 70.3888 11.1546 70.5627 11.1648C71.2991 11.1955 71.9946 11.308 72.6186 11.4921C74.562 12.0598 75.7127 13.4867 76.04 15.7369C76.0809 16.0233 76.1781 16.2279 76.311 16.3251C76.4542 16.4273 76.6128 16.3967 76.6179 16.3967C76.715 16.3762 76.8224 16.4069 76.8992 16.4734C76.9759 16.5399 77.0168 16.6421 77.0066 16.7444C76.9708 17.1126 76.7611 17.4502 76.4082 17.7161C75.8354 18.1253 74.9711 18.3452 73.9125 18.3452Z" fill="#26650B"/>
<path d="M70.5352 13.3793C70.5147 13.3793 70.4943 13.3793 70.4687 13.3742C69.5379 13.185 67.6764 13.1083 67.661 13.1083C67.482 13.1032 67.3439 12.9497 67.3542 12.7759C67.3593 12.5969 67.5076 12.4639 67.6866 12.469C67.7633 12.4741 69.6146 12.5457 70.6017 12.7503C70.7756 12.7861 70.8881 12.9549 70.8523 13.1287C70.8165 13.2771 70.6835 13.3793 70.5352 13.3793ZM69.1032 15.0568C69.0316 15.0568 68.9651 15.0363 68.9038 14.9903C68.3719 14.5761 67.2928 13.768 67.2775 13.7578C67.1343 13.6504 67.1036 13.4509 67.211 13.3077C67.3184 13.1645 67.5178 13.1339 67.661 13.2413C67.6712 13.2515 68.7555 14.0595 69.2976 14.4789C69.4356 14.5863 69.4612 14.7909 69.3538 14.9289C69.2924 15.0108 69.2004 15.0568 69.1032 15.0568ZM65.8608 24.2368C65.5898 24.2368 65.3034 24.1447 65.0323 23.9657C64.1476 23.3776 63.4674 21.9814 63.1708 20.1301C62.5059 15.9927 65.0886 13.722 65.2011 13.6248C65.3341 13.5072 65.5386 13.5225 65.6563 13.6606C65.7739 13.7936 65.7585 13.9982 65.6205 14.1158C65.5233 14.2027 63.2014 16.2586 63.8049 20.0278C64.0709 21.6746 64.659 22.948 65.3852 23.4287C65.4568 23.4748 65.5489 23.5259 65.646 23.5566C65.6409 23.4645 65.6511 23.3571 65.6767 23.2497C65.7688 22.902 66.0347 22.6105 66.4643 22.3803C68.2287 21.4495 69.0725 20.0892 68.9754 18.3452C68.9447 17.7622 68.8271 17.1485 68.6378 16.5092C68.5867 16.3405 68.6839 16.1615 68.8526 16.1103C69.0214 16.0592 69.2004 16.1563 69.2515 16.3251C69.4561 17.0104 69.5788 17.6753 69.6146 18.3094C69.7323 20.3295 68.7708 21.8945 66.7609 22.9531C66.5001 23.0912 66.3416 23.2497 66.3006 23.4134C66.2597 23.577 66.3364 23.7151 66.3364 23.7151C66.3927 23.8021 66.4029 23.9095 66.3671 24.0066C66.3313 24.1038 66.2444 24.1754 66.1472 24.201C66.0552 24.2265 65.958 24.2368 65.8608 24.2368Z" fill="#26650B"/>
<path d="M67.4442 17.2048C67.2857 17.2048 67.1476 17.0872 67.1271 16.9287C66.9941 15.9876 66.4418 14.2079 66.4367 14.1926C66.3856 14.0238 66.4776 13.8397 66.6464 13.7885C66.8151 13.7374 66.9993 13.8295 67.0504 13.9982C67.076 14.0749 67.6232 15.8444 67.7613 16.8366C67.7868 17.0105 67.6641 17.1741 67.4851 17.1997C67.4749 17.2048 67.4595 17.2048 67.4442 17.2048ZM65.3883 16.4172C65.3525 16.4172 65.3218 16.4121 65.286 16.4019C65.1172 16.3456 65.0252 16.1615 65.0814 15.9928C65.2962 15.3484 65.6951 14.0647 65.7003 14.0494C65.7514 13.8806 65.9304 13.7834 66.1043 13.8397C66.273 13.8908 66.3702 14.0749 66.314 14.2437C66.3088 14.259 65.9099 15.5529 65.6951 16.1973C65.6491 16.3303 65.5213 16.4172 65.3883 16.4172ZM60.2843 17.9055C59.0109 17.9055 57.8091 17.3378 56.6942 16.2127C56.4896 16.003 56.2901 15.9007 56.1163 15.9058C55.9475 15.9109 55.8401 16.0286 55.835 16.0286C55.7685 16.1104 55.6662 16.1513 55.5639 16.1411C55.4616 16.1308 55.3696 16.0746 55.3133 15.9876C55.1241 15.6706 55.0883 15.2768 55.2162 14.8523C55.5179 13.8346 56.6584 12.7759 58.3409 11.9525C62.105 10.1114 65.0303 11.9219 65.153 11.9986C65.3013 12.0957 65.3474 12.2952 65.2502 12.4435C65.153 12.5918 64.9536 12.6378 64.8053 12.5407C64.6928 12.4691 62.0487 10.853 58.6171 12.5304C57.1186 13.2618 56.0753 14.1977 55.8247 15.0313C55.7992 15.1131 55.7787 15.2154 55.7787 15.3177C55.8657 15.287 55.9679 15.2665 56.0805 15.2614C56.4436 15.2461 56.7964 15.4149 57.1391 15.7575C58.5455 17.1741 60.09 17.5884 61.7316 16.9798C62.3198 16.765 63.1432 16.3456 63.6495 16.0132C63.7978 15.916 63.9972 15.957 64.0944 16.1053C64.1916 16.2536 64.1507 16.453 64.0023 16.5502C63.45 16.9133 62.5908 17.3531 61.9516 17.5884C61.3941 17.7981 60.8315 17.9055 60.2843 17.9055Z" fill="#26650B"/>
<path d="M62.7041 15.4147C62.5814 15.4147 62.4637 15.3431 62.4126 15.2306C62.3359 15.067 62.4075 14.8777 62.5711 14.801C63.4354 14.4021 64.9748 13.3537 64.9901 13.3435C65.1385 13.2412 65.3379 13.2821 65.4351 13.4304C65.5374 13.5787 65.4964 13.7782 65.3481 13.8805C65.2817 13.9265 63.7525 14.9647 62.8422 15.3892C62.7962 15.4045 62.7501 15.4147 62.7041 15.4147ZM64.8981 13.2412C64.8827 13.2412 63.5275 13.2361 62.8473 13.2156C62.6683 13.2105 62.5302 13.0622 62.5353 12.8832C62.5404 12.7042 62.6939 12.5661 62.8678 12.5712C63.5428 12.5866 64.893 12.5968 64.9083 12.5968C65.0873 12.5968 65.2305 12.7451 65.2305 12.919C65.2203 13.098 65.0771 13.2412 64.8981 13.2412ZM62.2285 11.7785C62.1569 11.7785 62.0802 11.753 62.0239 11.7018C61.5483 11.3029 60.8886 10.592 60.4539 10.0141C59.2418 8.39295 59.1804 6.55695 60.2749 4.56753C60.4129 4.31182 60.459 4.09702 60.4078 3.93337C60.3567 3.76972 60.2084 3.693 60.2033 3.693C60.1112 3.64698 60.0447 3.56003 60.0243 3.46286C60.0038 3.36058 60.0294 3.2583 60.101 3.18158C60.3516 2.91053 60.7198 2.76733 61.1647 2.76733C62.2285 2.76733 63.5633 3.56003 64.8316 4.94087C67.6649 8.02472 66.7648 11.3489 66.7239 11.487C66.6778 11.6558 66.4988 11.7581 66.3249 11.7069C66.1562 11.6609 66.0539 11.4819 66.105 11.308C66.1408 11.1802 66.9387 8.18326 64.356 5.37557C63.2257 4.14305 62.0341 3.41172 61.1647 3.41172C61.0778 3.41172 60.9755 3.42195 60.8783 3.44752C60.9346 3.52423 60.9857 3.61629 61.0215 3.72369C61.1392 4.06634 61.0778 4.45502 60.8425 4.8795C59.8811 6.62855 59.9271 8.22929 60.9755 9.63058C61.3744 10.1625 62.0035 10.8426 62.4433 11.2058C62.5814 11.3183 62.5967 11.5228 62.4842 11.6609C62.4126 11.7376 62.3205 11.7785 62.2285 11.7785Z" fill="#26650B"/>
<path d="M65.1627 12.2693C65.0911 12.2693 65.0195 12.2438 64.9581 12.1977C64.8967 12.1466 63.4648 10.9754 62.7999 10.2237C62.6823 10.0907 62.6925 9.88612 62.8306 9.7685C62.9636 9.65087 63.1681 9.6611 63.2858 9.79918C63.9148 10.5152 65.357 11.6914 65.3672 11.7017C65.5053 11.8142 65.5258 12.0187 65.4133 12.1568C65.3519 12.2284 65.2598 12.2693 65.1627 12.2693ZM65.7508 11.8193C65.6127 11.8193 65.4849 11.7272 65.4439 11.5891C65.4388 11.5738 65.0604 10.2748 64.8814 9.61507C64.8354 9.44119 64.9376 9.26731 65.1064 9.22128C65.2752 9.17525 65.4542 9.27754 65.5002 9.4463C65.6741 10.1009 66.0525 11.3948 66.0577 11.405C66.1088 11.5738 66.0116 11.7528 65.8377 11.8039C65.8122 11.8142 65.7815 11.8193 65.7508 11.8193ZM67.6277 12.7808C67.4589 12.7808 67.3157 12.6478 67.3055 12.4739C67.2953 12.2949 67.4334 12.1466 67.6124 12.1364C67.6226 12.1364 68.8807 12.0545 70.2513 11.1902C71.2486 10.5612 72.0617 9.68156 72.6652 8.57178C73.4681 7.104 73.775 5.73851 73.4988 4.91513C73.4732 4.8333 73.4323 4.74125 73.3709 4.65431C73.3147 4.73102 73.2482 4.80773 73.1562 4.87422C72.8698 5.09413 72.4811 5.16572 72.0055 5.07878C70.0365 4.73613 68.538 5.29358 67.551 6.73578C67.2237 7.21652 66.9322 7.77396 66.6918 8.39278C66.6253 8.55643 66.4412 8.64338 66.2776 8.57689C66.1139 8.51552 66.027 8.3263 66.0935 8.16264C66.3492 7.4978 66.6611 6.89432 67.0191 6.37267C68.1647 4.70545 69.8831 4.05594 72.118 4.44462C72.4044 4.49577 72.6294 4.46508 72.7675 4.3628C72.9004 4.26051 72.926 4.10197 72.926 4.10197C72.9362 3.99969 72.9925 3.90763 73.0846 3.85138C73.1715 3.80024 73.284 3.79001 73.3761 3.83603C73.7136 3.98435 73.9693 4.28608 74.1125 4.70545C74.4552 5.71294 74.133 7.23186 73.238 8.87863C72.5782 10.0856 71.6935 11.047 70.6042 11.7323C69.0801 12.6938 67.7095 12.7756 67.6533 12.7756C67.6379 12.7808 67.6328 12.7808 67.6277 12.7808Z" fill="#26650B"/>
<path d="M66.7195 11.7838C66.6837 11.7838 66.6428 11.7787 66.607 11.7633C66.4382 11.7019 66.3564 11.5178 66.4178 11.3491C66.4433 11.2775 67.0929 9.53864 67.594 8.66923C67.681 8.5158 67.8804 8.45954 68.0339 8.5516C68.1873 8.63854 68.2435 8.83799 68.1515 8.99142C67.681 9.81992 67.0264 11.5587 67.0213 11.5792C66.9701 11.7019 66.8474 11.7838 66.7195 11.7838ZM67.3332 12.1929C67.2309 12.1929 67.1338 12.1469 67.0673 12.0548C66.965 11.9116 67.0008 11.7071 67.144 11.6048C67.1542 11.5945 68.264 10.8172 68.8317 10.4387C68.98 10.3416 69.1794 10.3774 69.2766 10.5257C69.3738 10.674 69.338 10.8734 69.1897 10.9706C68.6271 11.3491 67.5224 12.1213 67.5122 12.1315C67.4611 12.1724 67.3997 12.1929 67.3332 12.1929Z" fill="#26650B"/>
</svg>
