<svg width="48" height="48" viewBox="0 0 48 48" fill="none" xmlns="http://www.w3.org/2000/svg">
<path d="M24 0C19.2533 0 14.6131 1.40758 10.6663 4.04473C6.71954 6.68188 3.6434 10.4302 1.8269 14.8156C0.0103991 19.201 -0.464881 24.0266 0.461164 28.6822C1.38721 33.3377 3.67299 37.6141 7.02945 40.9706C10.3859 44.327 14.6623 46.6128 19.3178 47.5388C23.9734 48.4649 28.799 47.9896 33.1844 46.1731C37.5698 44.3566 41.3181 41.2805 43.9553 37.3337C46.5924 33.3869 48 28.7467 48 24C48 17.6348 45.4714 11.5303 40.9706 7.02944C36.4697 2.52856 30.3652 0 24 0ZM25.0288 14.7424C27.2104 14.7449 29.302 15.6127 30.8446 17.1554C32.3873 18.698 33.2551 20.7896 33.2576 22.9712H31.2C31.1983 21.335 30.5476 19.7663 29.3906 18.6094C28.2337 17.4524 26.665 16.8017 25.0288 16.8V14.7424ZM31.6928 38.4C31.6304 38.4 25.4528 38.2944 17.5088 30.4912C9.70561 22.5504 9.60001 16.3696 9.60001 16.3072C9.60001 15.5376 14.4 9.6 15.4608 9.6C15.8288 9.6 16.1152 9.8496 16.4288 10.224C17.184 11.1232 20.5232 16.3936 20.3696 17.272C20.296 17.6848 19.9456 17.9984 18.9408 18.8416C18.4457 19.2308 17.9824 19.6588 17.5552 20.1216C17.7598 20.9683 18.0638 21.7879 18.4608 22.5632C19.9401 25.6047 22.3978 28.0613 25.44 29.5392C26.2153 29.9362 27.0349 30.2402 27.8816 30.4448C28.3444 30.0176 28.7724 29.5543 29.1616 29.0592C30.0048 28.0544 30.3184 27.704 30.7312 27.6304C31.6096 27.4704 36.88 30.816 37.7792 31.5712C38.1536 31.8912 38.4032 32.1712 38.4032 32.5392C38.4 33.6 32.4624 38.4 31.6928 38.4ZM36.3424 22.9712C36.339 19.9717 35.146 17.096 33.025 14.975C30.904 12.854 28.0283 11.661 25.0288 11.6576V9.6C28.5738 9.60423 31.9723 11.0143 34.479 13.521C36.9857 16.0277 38.3958 19.4262 38.4 22.9712H36.3424Z" fill="#F2FFED"/>
</svg>
