<svg width="75" height="76" viewBox="0 0 75 76" fill="none" xmlns="http://www.w3.org/2000/svg">
<path d="M74.1023 26.6036L18.8977 6.15125C18.1916 5.89032 17.4071 6.25138 17.1467 6.95806C17.1461 6.95863 17.1461 6.9592 17.1456 6.95977L11.0344 23.5944C10.7746 24.301 11.1368 25.085 11.8435 25.3447H11.8447L18.2436 27.6942L16.8337 31.5354C16.5745 32.2421 16.9367 33.0249 17.6434 33.2847L30.4436 37.9842L29.5029 40.5448C28.648 42.8382 29.4457 45.42 31.4461 46.8305V53.7885H13.1001C12.212 51.7583 10.3947 50.2843 8.22431 49.8345V46.9712C8.22431 46.2182 7.61434 45.6077 6.86074 45.6077H1.36357C0.610543 45.6077 0 46.2182 0 46.9712V68.7866C0 69.5402 0.610543 70.1501 1.36357 70.1501H6.86074C7.61434 70.1501 8.22431 69.5402 8.22431 68.7866V65.9238C10.3947 65.4735 12.212 64.0001 13.1001 61.9693H31.4461V63.3329C31.4461 65.5919 33.2772 67.4236 35.5362 67.4236C37.7953 67.4236 39.6269 65.5919 39.6269 63.3329V48.2284C40.8663 47.6138 41.8236 46.5478 42.3009 45.2489L43.2416 42.6883L54.7612 46.9152C54.9117 46.9707 55.0702 46.9987 55.2304 46.9987C55.802 46.9987 56.3136 46.6422 56.511 46.1055L57.022 44.7133C61.4589 45.5482 65.7321 42.6282 66.5664 38.1919C66.8748 36.5525 66.6745 34.8582 65.9924 33.3362L74.2579 29.0921C74.928 28.7488 75.1929 27.9271 74.8496 27.257C74.694 26.9526 74.4296 26.718 74.1092 26.5996L74.1023 26.6036ZM34.1727 48.0727L35.3016 48.4819C35.8155 48.6661 36.3545 48.772 36.8998 48.7954V53.7885H34.1727V48.0727ZM5.49775 67.4236H2.72713V48.3348H5.49775V67.4236ZM10.9514 59.2427C10.9491 60.9754 9.85738 62.5198 8.22431 63.1V52.6584C9.85738 53.238 10.9491 54.7824 10.9514 56.5156V59.2427ZM13.7209 56.5156H36.8998V59.2427H13.7209V56.5156ZM35.5362 64.6964C34.7832 64.6964 34.1727 64.0859 34.1727 63.3329V61.9693H36.8998V63.3329C36.8998 64.0859 36.2893 64.6964 35.5362 64.6964ZM40.6821 41.7493L39.7414 44.3099C39.2218 45.7221 37.6557 46.4465 36.2423 45.9281L33.6777 44.9885C32.2644 44.4696 31.5388 42.9029 32.0578 41.4889C32.0578 41.4889 32.0578 41.4889 32.0578 41.4884L32.9991 38.9295L39.9102 41.4666L40.6821 41.7493ZM54.4219 43.8899L19.863 31.1995L20.8042 28.6389L41.2823 36.1588C41.767 36.3351 42.3106 36.2246 42.6877 35.8722L46.514 32.2701L57.2417 36.2103L54.4219 43.8899ZM63.6407 38.561C62.7766 40.8904 60.4529 42.3461 57.9804 42.1063L60.0873 36.3671L63.5285 34.595C64.067 35.855 64.107 37.2729 63.6407 38.561ZM59.0384 33.8466C58.9663 33.8529 58.8948 33.8654 58.8244 33.8843L46.6679 29.4206C46.1833 29.2426 45.6397 29.353 45.2632 29.7067L41.4322 33.3093L14.0642 23.259L19.2335 9.18394L70.2491 28.0845L59.0384 33.8466Z" fill="#3E2118"/>
<path d="M25.2432 24.458L26.1827 21.8979L28.7428 22.8381L27.8026 25.3981L25.2432 24.458Z" fill="#3E2118"/>
<path d="M30.3633 26.3379L31.3028 23.7778L33.8629 24.718L32.9228 27.2774L30.3633 26.3379Z" fill="#3E2118"/>
<path d="M35.4824 28.2187L36.4226 25.6587L38.982 26.5988L38.0419 29.1589L35.4824 28.2187Z" fill="#3E2118"/>
</svg>
