<svg width="89" height="89" viewBox="0 0 89 89" fill="none" xmlns="http://www.w3.org/2000/svg">
<path fill-rule="evenodd" clip-rule="evenodd" d="M6.33028 61.0401C6.33028 61.0401 9.89588 62.8229 12.9886 64.3692C16.1843 65.9685 19.9139 66.1214 23.2319 64.7948C24.8172 64.1607 26.5806 63.457 28.1409 62.8312C30.58 61.855 33.3112 61.9078 35.7114 62.9758C36.9073 63.5071 38.209 64.0856 39.416 64.6223C42.6534 66.0603 46.3469 66.0603 49.5843 64.6223C50.7914 64.0856 52.093 63.5071 53.2889 62.9758C55.6891 61.9078 58.4203 61.855 60.8594 62.8312C62.4197 63.457 64.1831 64.1607 65.7684 64.7948C69.0864 66.1214 72.816 65.9685 76.0117 64.3692C79.1044 62.8229 82.67 61.0401 82.67 61.0401C83.3542 60.698 83.6351 59.8608 83.2902 59.1739C82.9481 58.4897 82.111 58.2088 81.424 58.5537C81.424 58.5537 77.8612 60.3337 74.7685 61.88C72.2821 63.126 69.3812 63.2456 66.8002 62.2138C65.2177 61.5797 63.4516 60.8732 61.8913 60.2502C58.7568 58.9959 55.2469 59.0626 52.1597 60.4338L48.4523 62.0803C45.938 63.1983 43.0623 63.1983 40.548 62.0803C39.3382 61.5435 38.0365 60.965 36.8406 60.4338C33.7534 59.0626 30.2435 58.9959 27.109 60.2502C25.5487 60.8732 23.7826 61.5797 22.2001 62.2138C19.6191 63.2456 16.7183 63.126 14.2318 61.88C11.1391 60.3337 7.57628 58.5537 7.57628 58.5537C6.88931 58.2088 6.05218 58.4897 5.71009 59.1739C5.36521 59.8608 5.6461 60.698 6.33028 61.0401ZM6.33028 55.4776C6.33028 55.4776 9.89588 57.2604 12.9886 58.8067C16.1843 60.406 19.9139 60.5589 23.2319 59.2323C24.8172 58.5982 26.5806 57.8945 28.1409 57.2687C30.58 56.2925 33.3112 56.3453 35.7114 57.4133C36.9073 57.9446 38.209 58.5231 39.416 59.0598C42.6534 60.4978 46.3469 60.4978 49.5843 59.0598C50.7914 58.5231 52.093 57.9446 53.2889 57.4133C55.6891 56.3453 58.4203 56.2925 60.8594 57.2687C62.4197 57.8945 64.1831 58.5982 65.7684 59.2323C69.0864 60.5589 72.816 60.406 76.0117 58.8067C79.1044 57.2604 82.67 55.4776 82.67 55.4776C83.3542 55.1355 83.6351 54.2983 83.2902 53.6114C82.9481 52.9272 82.111 52.6463 81.424 52.9912C81.424 52.9912 77.8612 54.7712 74.7685 56.3175C72.2821 57.5635 69.3812 57.6831 66.8002 56.6513C65.2177 56.0172 63.4516 55.3107 61.8913 54.6877C58.7568 53.4334 55.2469 53.5001 52.1597 54.8713L48.4523 56.5178C45.938 57.6358 43.0623 57.6358 40.548 56.5178C39.3382 55.981 38.0365 55.4025 36.8406 54.8713C33.7534 53.5001 30.2435 53.4334 27.109 54.6877C25.5487 55.3107 23.7826 56.0172 22.2001 56.6513C19.6191 57.6831 16.7183 57.5635 14.2318 56.3175C11.1391 54.7712 7.57628 52.9912 7.57628 52.9912C6.88931 52.6463 6.05218 52.9272 5.71009 53.6114C5.36521 54.2983 5.6461 55.1355 6.33028 55.4776ZM55.6252 15.2969V19.4688H36.1564V15.2969C36.1564 11.4588 33.0414 8.34375 29.2033 8.34375C25.3652 8.34375 22.2502 11.4588 22.2502 15.2969C22.2502 16.0645 22.8732 16.6875 23.6408 16.6875C24.4084 16.6875 25.0314 16.0645 25.0314 15.2969C25.0314 12.994 26.9004 11.125 29.2033 11.125C31.5062 11.125 33.3752 12.994 33.3752 15.2969V48.3353C31.2725 48.06 29.1143 48.3214 27.109 49.1252C25.5487 49.7482 23.7826 50.4547 22.2001 51.0888C19.6191 52.1206 16.7183 52.001 14.2318 50.755C11.1391 49.2087 7.57628 47.4287 7.57628 47.4287C6.88931 47.0838 6.05218 47.3647 5.71009 48.0489C5.36521 48.7358 5.6461 49.573 6.33028 49.9151C6.33028 49.9151 9.89588 51.6979 12.9886 53.2442C16.1843 54.8435 19.9139 54.9964 23.2319 53.6698C24.8172 53.0357 26.5806 52.332 28.1409 51.7062C30.0655 50.9386 32.1681 50.8079 34.1484 51.3085C34.2986 51.3836 34.4654 51.4309 34.6406 51.4476C35.0021 51.5588 35.361 51.6951 35.7114 51.8508C36.9073 52.3821 38.209 52.9606 39.416 53.4973C42.6534 54.9353 46.3469 54.9353 49.5843 53.4973C50.7914 52.9606 52.093 52.3821 53.2889 51.8508C55.6891 50.7828 58.4203 50.73 60.8594 51.7062C62.4197 52.332 64.1831 53.0357 65.7684 53.6698C69.0864 54.9964 72.816 54.8435 76.0117 53.2442C79.1044 51.6979 82.67 49.9151 82.67 49.9151C83.3542 49.573 83.6351 48.7358 83.2902 48.0489C82.9481 47.3647 82.111 47.0838 81.424 47.4287C81.424 47.4287 77.8612 49.2087 74.7685 50.755C72.2821 52.001 69.3812 52.1206 66.8002 51.0888C65.2177 50.4547 63.4516 49.7482 61.8913 49.1252C60.7649 48.6747 59.5912 48.3938 58.4064 48.2825V15.2969V15.2746C58.3953 11.4476 55.2831 8.34375 51.4533 8.34375C47.6152 8.34375 44.5002 11.4588 44.5002 15.2969C44.5002 16.0645 45.1232 16.6875 45.8908 16.6875C46.6584 16.6875 47.2814 16.0645 47.2814 15.2969C47.2814 12.994 49.1504 11.125 51.4533 11.125C53.7562 11.125 55.6252 12.994 55.6252 15.2969ZM55.6252 47.2812H36.1564V49.0279C36.3873 49.1141 36.6153 49.2087 36.8406 49.3088C38.0365 49.84 39.3382 50.4185 40.548 50.9553C43.0623 52.0733 45.938 52.0733 48.4523 50.9553L52.1597 49.3088C53.2722 48.8137 54.4403 48.4883 55.6252 48.3353V47.2812ZM55.6252 38.9375H36.1564V44.5H55.6252V38.9375ZM55.6252 30.5938H36.1564V36.1562H55.6252V30.5938ZM36.1564 22.25V27.8125H55.6252V22.25H36.1564Z" fill="#3E2118"/>
</svg>
